<?xml version="1.0" standalone="no"?>
<!DOCTYPE svg PUBLIC "-//W3C//DTD SVG 20010904//EN" "http://www.w3.org/TR/2001/REC-SVG-20010904/DTD/svg10.dtd">
<svg xmlns="http://www.w3.org/2000/svg" version="1.0" width="778.000000pt" height="238.000000pt" viewBox="0 0 778.000000 238.000000" preserveAspectRatio="xMidYMid meet">
<metadata>
Created by potrace 1.16, written by Peter Selinger 2001-2019
<meta name="Producer" content="Online-Convert"/></metadata>
<g transform="translate(0.000000,238.000000) scale(0.100000,-0.100000)" fill="#000000" stroke="none">
<path d="M3680 1200 l0 -580 114 0 115 0 3 283 c3 263 4 284 24 317 72 124 266 116 325 -14 17 -37 19 -70 19 -313 l0 -273 116 0 115 0 -3 313 c-3 301 -4 314 -27 371 -32 80 -99 146 -177 176 -50 18 -74 21 -154 18 -102 -4 -157 -24 -212 -76 l-28 -26 0 192 0 192 -115 0 -115 0 0 -580z"/>
<path d="M2898 1720 c-114 -18 -227 -79 -304 -162 -90 -97 -133 -205 -141 -353 -10 -177 43 -323 157 -435 64 -63 150 -113 235 -135 78 -20 239 -20 319 1 139 36 260 133 321 259 l34 70 -131 3 c-118 2 -133 1 -141 -15 -6 -10 -29 -37 -53 -60 -105 -102 -302 -95 -411 14 -132 132 -134 389 -4 522 115 119 323 122 429 7 21 -23 41 -48 43 -55 3 -8 40 -11 137 -9 l133 3 -37 73 c-62 125 -172 215 -314 256 -68 20 -197 28 -272 16z"/>
<path d="M5800 1605 l0 -105 -55 0 -55 0 0 -95 0 -95 55 0 55 0 0 -242 c0 -147 4 -259 11 -283 7 -23 28 -57 53 -81 55 -56 118 -74 253 -74 l103 0 0 94 0 94 -80 4 c-119 5 -114 -6 -118 263 l-3 225 100 0 101 0 0 95 0 95 -100 0 -100 0 0 105 0 105 -110 0 -110 0 0 -105z"/>
<path d="M4928 1486 c-176 -63 -268 -209 -268 -427 0 -200 83 -345 238 -417 49 -23 70 -27 152 -27 83 0 103 4 155 28 33 16 75 42 93 60 l32 31 0 -57 0 -57 115 0 115 0 0 435 0 435 -115 0 -115 0 0 -51 0 -50 -44 36 c-68 55 -130 75 -234 75 -48 -1 -103 -7 -124 -14z m300 -219 c23 -14 54 -48 69 -74 25 -43 28 -58 28 -133 0 -123 -37 -185 -135 -229 -59 -27 -104 -26 -166 3 -174 81 -181 359 -12 445 62 32 159 26 216 -12z"/>
</g>
</svg>
